<svg viewBox="0 0 24 24" xmlns="http://www.w3.org/2000/svg"><path d="M1.768 15.346a.46.46 0 01-.005-.638L14.708 1.763a.46.46 0 01.638.005c4.674 4.674 4.674 12.252 0 16.926-4.674 4.674-12.252 4.674-16.926 0zm1.664 2.497a.457.457 0 00.007.625 12.003 12.003 0 002.093 1.736.457.457 0 00.576-.06l7.463-7.463a.46.46 0 000-.65l-.95-.951a.46.46 0 00-.651 0zM7.39 21.6a.458.458 0 00.56-.047l4.543-4.543a.46.46 0 000-.65l-.95-.951a.46.46 0 00-.651 0l-4.116 4.116a.457.457 0 00-.064.567c.19.315.398.621.623.92z" fill="#5E6AD2"/></svg>